<?xml version="1.0" encoding="UTF-8" standalone="no"?>
<svg
   enable-background="new 0 0 128 128"
   id="Layer_1"
   version="1.1"
   viewBox="0 0 72 72"
   xml:space="preserve"
   sodipodi:docname="vault-logo.svg"
   width="72"
   height="72"
   inkscape:version="1.2 (dc2aeda, 2022-05-15)"
   xmlns:inkscape="http://www.inkscape.org/namespaces/inkscape"
   xmlns:sodipodi="http://sodipodi.sourceforge.net/DTD/sodipodi-0.dtd"
   xmlns="http://www.w3.org/2000/svg"
   xmlns:svg="http://www.w3.org/2000/svg"><defs
     id="defs69" /><sodipodi:namedview
     id="namedview67"
     pagecolor="#ffffff"
     bordercolor="#000000"
     borderopacity="0.25"
     inkscape:showpageshadow="2"
     inkscape:pageopacity="0.0"
     inkscape:pagecheckerboard="0"
     inkscape:deskcolor="#d1d1d1"
     showgrid="false"
     inkscape:lockguides="true"
     inkscape:zoom="1.84375"
     inkscape:cx="36.067797"
     inkscape:cy="35.79661"
     inkscape:window-width="1792"
     inkscape:window-height="1002"
     inkscape:window-x="0"
     inkscape:window-y="25"
     inkscape:window-maximized="0"
     inkscape:current-layer="g64" /><g
     id="g64"
     transform="translate(-28,-28)"><g
       id="g62"><path
         d="M 90.4,100 H 37.6 C 32.3,100 28,95.7 28,90.4 V 37.6 C 28,32.3 32.3,28 37.6,28 h 52.8 c 5.3,0 9.6,4.3 9.6,9.6 v 52.8 c 0,5.3 -4.3,9.6 -9.6,9.6 z"
         fill="#e6e8eb"
         id="path6" /><g
         id="g10"><path
           d="M 90.4,93 H 37.6 C 36.2,93 35,91.8 35,90.4 V 37.6 C 35,36.2 36.2,35 37.6,35 h 52.8 c 1.4,0 2.6,1.2 2.6,2.6 V 90.4 C 93,91.8 91.8,93 90.4,93 Z M 37.6,37 C 37.3,37 37,37.3 37,37.6 v 52.8 c 0,0.3 0.3,0.6 0.6,0.6 H 90.4 C 90.7,91 91,90.7 91,90.4 V 37.6 C 91,37.3 90.7,37 90.4,37 Z"
           fill="#cfd5df"
           id="path8" /></g><g
         id="g16"><path
           d="m 94,56.6 h -1.4 c -0.9,0 -1.7,-0.7 -1.7,-1.7 V 43.1 c 0,-0.9 0.7,-1.7 1.7,-1.7 H 94 c 0.9,0 1.7,0.7 1.7,1.7 V 55 c 0,0.9 -0.8,1.6 -1.7,1.6 z"
           fill="#cfd5df"
           id="path12" /><path
           d="m 94,86.5 h -1.4 c -0.9,0 -1.7,-0.7 -1.7,-1.7 V 73 c 0,-0.9 0.7,-1.7 1.7,-1.7 H 94 c 0.9,0 1.7,0.7 1.7,1.7 v 11.8 c 0,1 -0.8,1.7 -1.7,1.7 z"
           fill="#cfd5df"
           id="path14" /></g><g
         id="g32"><circle
           cx="53.799999"
           cy="64"
           fill="#ffffff"
           r="12.6"
           id="circle18" /><circle
           cx="53.799999"
           cy="64"
           fill="#cfd5df"
           r="10.9"
           id="circle20" /><circle
           cx="53.799999"
           cy="64"
           fill="#e6e8eb"
           r="8.1000004"
           id="circle22" /><path
           d="m 42.6,75.2 v 0 c -0.7,-0.7 -0.7,-1.9 0,-2.6 L 62.3,52.9 c 0.7,-0.7 1.9,-0.7 2.6,0 v 0 c 0.7,0.7 0.7,1.9 0,2.6 L 45.3,75.2 c -0.7,0.7 -1.9,0.7 -2.7,0 z"
           fill="#454e5c"
           id="path24" /><path
           d="m 42.6,52.8 v 0 c 0.7,-0.7 1.9,-0.7 2.6,0 L 65,72.5 c 0.7,0.7 0.7,1.9 0,2.6 v 0 c -0.7,0.7 -1.9,0.7 -2.6,0 L 42.6,55.5 c -0.7,-0.7 -0.7,-1.9 0,-2.7 z"
           fill="#454e5c"
           id="path26" /><circle
           cx="53.799999"
           cy="64"
           fill="#545e70"
           r="5.8000002"
           id="circle28" /><circle
           cx="53.799999"
           cy="64"
           fill="#acb2b9"
           r="3.0999999"
           id="circle30" /></g><circle
         cx="78.800003"
         cy="63.200001"
         fill="#acb2b9"
         r="6.3000002"
         id="circle34" /><circle
         cx="78.800003"
         cy="63.200001"
         fill="#e6e8eb"
         r="4.9000001"
         id="circle36" /><circle
         cx="78.800003"
         cy="63.200001"
         fill="#cfd5df"
         r="3.5999999"
         id="circle38" /><g
         id="g48"><rect
           fill="#cfd5df"
           height="8.1000004"
           width="0.30000001"
           x="78.699997"
           y="59.200001"
           id="rect40" /><rect
           fill="#cfd5df"
           height="0.30000001"
           width="8.1000004"
           x="74.800003"
           y="63"
           id="rect42" /><rect
           fill="#cfd5df"
           height="8.1000004"
           transform="matrix(0.7071,0.7071,-0.7071,0.7071,67.78,-37.2417)"
           width="0.30000001"
           x="78.699997"
           y="59.200001"
           id="rect44" /><rect
           fill="#cfd5df"
           height="8.1000004"
           transform="matrix(-0.7071,0.7071,-0.7071,-0.7071,179.2834,52.1292)"
           width="0.30000001"
           x="78.699997"
           y="59.200001"
           id="rect46" /></g><g
         id="g58"><rect
           fill="#cfd5df"
           height="8.1000004"
           transform="matrix(0.9239,-0.3827,0.3827,0.9239,-18.1828,34.9832)"
           width="0.30000001"
           x="78.699997"
           y="59.200001"
           id="rect50" /><rect
           fill="#cfd5df"
           height="8.1000004"
           transform="matrix(0.3827,0.9239,-0.9239,0.3827,107.0563,-33.8313)"
           width="0.30000001"
           x="78.699997"
           y="59.200001"
           id="rect52" /><rect
           fill="#cfd5df"
           height="8.1000004"
           transform="matrix(0.9239,0.3827,-0.3827,0.9239,30.186,-25.3619)"
           width="0.30000001"
           x="78.699997"
           y="59.200001"
           id="rect54" /><rect
           fill="#cfd5df"
           height="8.1000004"
           transform="matrix(-0.3826,0.9239,-0.9239,-0.3826,167.4025,14.5355)"
           width="0.30000001"
           x="78.699997"
           y="59.200001"
           id="rect56" /></g><circle
         cx="78.800003"
         cy="63.200001"
         fill="#ffffff"
         r="2.2"
         id="circle60" /></g></g></svg>
